<svg xmlns="http://www.w3.org/2000/svg" xmlns:xlink="http://www.w3.org/1999/xlink" width="313" height="157" viewBox="0 0 313 157">
  <defs>
    <clipPath id="clip-Logo_Power_munchers">
      <rect width="313" height="157"/>
    </clipPath>
  </defs>
  <g id="Logo_Power_munchers" data-name="Logo Power munchers" clip-path="url(#clip-Logo_Power_munchers)">
    <g id="Power_Munchers" data-name="Power Munchers" transform="translate(28.751 27.658)">
      <g id="Groupe_15748" data-name="Groupe 15748" transform="translate(69.363)">
        <rect id="Rectangle_45110" data-name="Rectangle 45110" width="15.861" height="1.028" transform="translate(8.797 18.951) rotate(-89.878)" fill="#36464e"/>
        <path id="Tracé_81455" data-name="Tracé 81455" d="M4591,5750.913a5.137,5.137,0,0,1-5.134,5.146l-24.165.026a5.143,5.143,0,0,1-5.146-5.137l-.024-24.162a5.139,5.139,0,0,1,5.136-5.146l24.163-.027a5.144,5.144,0,0,1,5.147,5.137Z" transform="translate(-4556.532 -5704.54)" fill="#fff"/>
        <path id="Tracé_81456" data-name="Tracé 81456" d="M4577.654,5731.859a7,7,0,0,1-6.425,7.532h0a7,7,0,0,1-7.53-6.424h0a7,7,0,0,1,6.425-7.532h0a7,7,0,0,1,7.53,6.425Z" transform="translate(-4553.474 -5702.914)"/>
        <path id="Tracé_81457" data-name="Tracé 81457" d="M4572.073,5742.28a9.227,9.227,0,1,1,8.469-9.927A9.237,9.237,0,0,1,4572.073,5742.28Zm-1.239-15.62a6.442,6.442,0,1,0,6.931,5.912A6.449,6.449,0,0,0,4570.834,5726.66Z" transform="translate(-4554.142 -5703.583)" fill="#ced7db"/>
        <path id="Tracé_81458" data-name="Tracé 81458" d="M4580.177,5727.245a2.352,2.352,0,0,1-2.155,2.528h0a2.351,2.351,0,0,1-2.526-2.157h0a2.35,2.35,0,0,1,2.154-2.527h0a2.352,2.352,0,0,1,2.527,2.156Z" transform="translate(-4548.418 -5703.054)"/>
        <path id="Tracé_81459" data-name="Tracé 81459" d="M4565.6,5711.434a1.928,1.928,0,0,1-1.77,2.074h0a1.928,1.928,0,0,1-2.075-1.77h0a1.928,1.928,0,0,1,1.77-2.074h0a1.929,1.929,0,0,1,2.075,1.77Z" transform="translate(-4554.299 -5709.658)"/>
        <rect id="Rectangle_45111" data-name="Rectangle 45111" width="3.706" height="7.451" rx="1.297" transform="translate(9.972 41.184)"/>
        <rect id="Rectangle_45112" data-name="Rectangle 45112" width="3.706" height="7.451" rx="1.297" transform="translate(15.349 41.184)"/>
        <rect id="Rectangle_45113" data-name="Rectangle 45113" width="3.706" height="7.451" rx="1.297" transform="translate(20.726 41.184)"/>
      </g>
      <path id="Tracé_81460" data-name="Tracé 81460" d="M4543.637,5743.958v12.01h-7.022v-34.079h13.295a15.358,15.358,0,0,1,6.75,1.4,10.325,10.325,0,0,1,4.483,3.989,11.133,11.133,0,0,1,1.57,5.887,9.782,9.782,0,0,1-3.431,7.9q-3.428,2.892-9.49,2.889Zm0-5.686h6.273a6.172,6.172,0,0,0,4.249-1.311,4.764,4.764,0,0,0,1.463-3.744,5.625,5.625,0,0,0-1.475-4.05,5.517,5.517,0,0,0-4.073-1.591h-6.436Z" transform="translate(-4495.695 -5704.422)" fill="#fff"/>
      <path id="Tracé_81461" data-name="Tracé 81461" d="M4610.551,5746.137l4.587-24.248h7l-7.561,34.079h-7.068l-5.548-22.8-5.547,22.8h-7.069l-7.56-34.079h7l4.609,24.2,5.619-24.2h5.945Z" transform="translate(-4476.359 -5704.422)" fill="#fff"/>
      <path id="Tracé_81462" data-name="Tracé 81462" d="M4633.056,5741.2h-13.481v9.127H4635.4v5.642h-22.844v-34.079h22.8v5.688h-15.774v8.122h13.481Z" transform="translate(-4463.188 -5704.422)" fill="#fff"/>
      <path id="Tracé_81463" data-name="Tracé 81463" d="M4644.381,5743.492h-5.594v12.476h-7.022v-34.079h12.662q6.041,0,9.316,2.692a9.286,9.286,0,0,1,3.277,7.606,10.472,10.472,0,0,1-1.509,5.816,10.29,10.29,0,0,1-4.575,3.71l7.374,13.927v.328h-7.538Zm-5.594-5.689h5.664a5.792,5.792,0,0,0,4.1-1.346,4.81,4.81,0,0,0,1.452-3.708,5.15,5.15,0,0,0-1.37-3.792,5.69,5.69,0,0,0-4.2-1.38h-5.639Z" transform="translate(-4454.963 -5704.422)" fill="#fff"/>
      <path id="Tracé_81464" data-name="Tracé 81464" d="M4517.138,5756.126l8.754,24.718,8.706-24.718h9.221v34.08h-7.042v-9.316l.7-16.08-9.2,25.4h-4.82l-9.176-25.371.7,16.055v9.316h-7.021v-34.08Z" transform="translate(-4507.962 -5689.764)" fill="#fff"/>
      <path id="Tracé_81465" data-name="Tracé 81465" d="M4563.436,5756.126v22.448a11.5,11.5,0,0,1-3.5,8.847q-3.5,3.252-9.561,3.253-5.967,0-9.479-3.16a11.293,11.293,0,0,1-3.58-8.685v-22.7h7.022v22.493q0,3.35,1.6,4.881a6.159,6.159,0,0,0,4.436,1.533q5.922,0,6.015-6.226v-22.682Z" transform="translate(-4495.397 -5689.764)" fill="#fff"/>
      <path id="Tracé_81466" data-name="Tracé 81466" d="M4587.541,5790.206h-7.022l-13.669-22.422v22.422h-7.022v-34.08h7.022l13.692,22.472v-22.472h7Z" transform="translate(-4485.759 -5689.764)" fill="#fff"/>
      <path id="Tracé_81467" data-name="Tracé 81467" d="M4610.565,5778.995a12.065,12.065,0,0,1-4.06,8.662,14.271,14.271,0,0,1-9.656,3.16q-6.553,0-10.31-4.413t-3.757-12.113v-2.083a20.457,20.457,0,0,1,1.731-8.66,12.99,12.99,0,0,1,4.951-5.747,15.474,15.474,0,0,1,16.981,1.16,12.959,12.959,0,0,1,4.166,8.872h-7.021a7.108,7.108,0,0,0-1.838-4.788,6.8,6.8,0,0,0-4.809-1.486,5.966,5.966,0,0,0-5.254,2.516q-1.744,2.517-1.791,7.806v2.574q0,5.526,1.674,8.075a5.853,5.853,0,0,0,5.277,2.552,6.931,6.931,0,0,0,4.856-1.486,6.7,6.7,0,0,0,1.838-4.6Z" transform="translate(-4475.933 -5689.907)" fill="#fff"/>
      <path id="Tracé_81468" data-name="Tracé 81468" d="M4633.243,5790.206h-7.021V5775.6h-13.693v14.605h-7.021v-34.08h7.021v13.811h13.693v-13.811h7.021Z" transform="translate(-4466.205 -5689.764)" fill="#fff"/>
      <path id="Tracé_81469" data-name="Tracé 81469" d="M4661.159,5777.73h-5.595v12.475h-7.021v-34.08H4661.2q6.042,0,9.317,2.693a9.293,9.293,0,0,1,3.277,7.605,10.484,10.484,0,0,1-1.51,5.817,10.3,10.3,0,0,1-4.576,3.71l7.372,13.927v.327h-7.535Zm-5.595-5.688h5.665a5.8,5.8,0,0,0,4.1-1.347,4.8,4.8,0,0,0,1.452-3.708,5.151,5.151,0,0,0-1.369-3.793,5.7,5.7,0,0,0-4.2-1.38h-5.64Z" transform="translate(-4447.781 -5689.764)" fill="#fff"/>
      <path id="Tracé_81470" data-name="Tracé 81470" d="M4687.665,5781.407a3.605,3.605,0,0,0-1.406-3.055,18.438,18.438,0,0,0-5.055-2.246,35.958,35.958,0,0,1-5.782-2.329q-5.807-3.139-5.8-8.45a8.224,8.224,0,0,1,1.557-4.927,10.139,10.139,0,0,1,4.471-3.382,16.789,16.789,0,0,1,6.542-1.217,15.306,15.306,0,0,1,6.505,1.322,10.385,10.385,0,0,1,4.437,3.733,9.783,9.783,0,0,1,1.579,5.478h-7.022a4.6,4.6,0,0,0-1.476-3.64,6.058,6.058,0,0,0-4.141-1.3,6.464,6.464,0,0,0-4,1.091,3.424,3.424,0,0,0-1.429,2.866,3.285,3.285,0,0,0,1.674,2.785,18.93,18.93,0,0,0,4.926,2.106q5.993,1.8,8.731,4.471a8.9,8.9,0,0,1,2.739,6.646,8.2,8.2,0,0,1-3.348,6.94q-3.346,2.517-9.012,2.517a17.4,17.4,0,0,1-7.161-1.439,11.342,11.342,0,0,1-4.928-3.945,10.093,10.093,0,0,1-1.7-5.805h7.045q0,5.64,6.74,5.642a6.561,6.561,0,0,0,3.909-1.019A3.314,3.314,0,0,0,4687.665,5781.407Z" transform="translate(-4439.211 -5689.907)" fill="#fff"/>
      <g id="Groupe_15749" data-name="Groupe 15749" transform="translate(173.07 63.714)">
        <path id="Rectangle_45114" data-name="Rectangle 45114" d="M.456,0H18.718a.455.455,0,0,1,.455.455v1.5a0,0,0,0,1,0,0H0a0,0,0,0,1,0,0V.456A.456.456,0,0,1,.456,0Z" transform="translate(21.083 37.969) rotate(-179.872)" fill="#fff"/>
        <rect id="Rectangle_45115" data-name="Rectangle 45115" width="23.273" height="32.946" rx="1.267" transform="translate(0.074 2.995) rotate(0.129)" fill="#fff"/>
        <rect id="Rectangle_45116" data-name="Rectangle 45116" width="16.201" height="2.169" transform="translate(7.147 12.275) rotate(0.123)" fill="#25272b"/>
        <rect id="Rectangle_45117" data-name="Rectangle 45117" width="16.163" height="2.169" transform="translate(7.147 24.784) rotate(0.123)" fill="#25272b"/>
        <path id="Rectangle_45118" data-name="Rectangle 45118" d="M.767,0H6.858a.767.767,0,0,1,.767.767V3a0,0,0,0,1,0,0H0A0,0,0,0,1,0,3V.767A.767.767,0,0,1,.767,0Z" transform="translate(7.69 0) rotate(0.158)" fill="#fff"/>
        <rect id="Rectangle_45119" data-name="Rectangle 45119" width="16.201" height="2.169" transform="translate(7.147 12.275) rotate(0.123)"/>
        <rect id="Rectangle_45120" data-name="Rectangle 45120" width="16.163" height="2.169" transform="translate(7.147 24.784) rotate(0.123)"/>
      </g>
    </g>
  </g>
</svg>
