<svg xmlns="http://www.w3.org/2000/svg" xmlns:xlink="http://www.w3.org/1999/xlink" width="312" height="119" viewBox="0 0 312 119">
  <defs>
    <clipPath id="clip-Logo_SpeedBall_white">
      <rect width="312" height="119"/>
    </clipPath>
  </defs>
  <g id="Logo_SpeedBall_white" data-name="Logo SpeedBall white" clip-path="url(#clip-Logo_SpeedBall_white)">
    <g id="logo_speed_ball" data-name="logo speed ball" transform="translate(45.501 38.711)">
      <path id="Tracé_72412" data-name="Tracé 72412" d="M-16.6-34.535a4.877,4.877,0,0,0,3.445-1.147,3.9,3.9,0,0,0,1.237-2.994,3.934,3.934,0,0,0-1.26-3.016,5.107,5.107,0,0,0-3.6-1.169h-6.572v8.326Zm-.674-13.549a4.487,4.487,0,0,0,3.173-1.1,3.612,3.612,0,0,0,1.193-2.768,3.627,3.627,0,0,0-1.148-2.723,4.2,4.2,0,0,0-3.039-1.1h-6.256v7.7ZM-29.427-61.228h12.6A11.074,11.074,0,0,1-11.848-60.1a9.077,9.077,0,0,1,3.578,3.06,7.414,7.414,0,0,1,1.306,4.231A7.379,7.379,0,0,1-8.157-48.6a7.852,7.852,0,0,1-3.129,2.724v.36A8.455,8.455,0,0,1-7.28-42.66a7.555,7.555,0,0,1,1.486,4.7,8.062,8.062,0,0,1-1.418,4.7A9.2,9.2,0,0,1-11.039-30.1,12.647,12.647,0,0,1-16.373-29H-29.427Z" transform="translate(189.215 62.998)" fill="#fff"/>
      <path id="Tracé_72414" data-name="Tracé 72414" d="M568.912-1130.622h5.9v32.23h-5.9Z" transform="translate(-359.908 1132.392)" fill="#fff"/>
      <path id="Tracé_72415" data-name="Tracé 72415" d="M595.086-1130.622h5.9v32.23h-5.9Z" transform="translate(-378.028 1132.392)" fill="#fff"/>
      <path id="Tracé_72416" data-name="Tracé 72416" d="M-23.36-31.319a3.407,3.407,0,0,0-1.328-2.888,17.434,17.434,0,0,0-4.779-2.124,33.833,33.833,0,0,1-5.465-2.2q-5.489-2.965-5.487-7.988a7.777,7.777,0,0,1,1.471-4.657,9.605,9.605,0,0,1,4.227-3.2,15.908,15.908,0,0,1,6.185-1.151,14.476,14.476,0,0,1,6.151,1.25,9.8,9.8,0,0,1,4.193,3.529A9.234,9.234,0,0,1-16.7-45.569h-6.638a4.344,4.344,0,0,0-1.394-3.441,5.728,5.728,0,0,0-3.916-1.228,6.122,6.122,0,0,0-3.784,1.029,3.245,3.245,0,0,0-1.35,2.71A3.108,3.108,0,0,0-32.2-43.865a17.871,17.871,0,0,0,4.658,1.992q5.664,1.7,8.254,4.226A8.418,8.418,0,0,1-16.7-31.363,7.753,7.753,0,0,1-19.864-24.8q-3.165,2.379-8.519,2.379a16.442,16.442,0,0,1-6.771-1.361,10.7,10.7,0,0,1-4.658-3.728A9.547,9.547,0,0,1-41.416-33h6.66q0,5.334,6.373,5.333a6.2,6.2,0,0,0,3.7-.962,3.133,3.133,0,0,0,1.328-2.689" transform="translate(41.416 56.854)" fill="#fff"/>
      <path id="Tracé_72417" data-name="Tracé 72417" d="M-19.61-15.745A9.422,9.422,0,0,0-20.795-20.9a3.857,3.857,0,0,0-3.441-1.815,4.188,4.188,0,0,0-4.138,2.3v9.8a4.259,4.259,0,0,0,4.182,2.367q4.581,0,4.581-7.5m6.395.465a14.362,14.362,0,0,1-2.512,8.862,8.052,8.052,0,0,1-6.782,3.33,7.46,7.46,0,0,1-5.864-2.522V5.674h-6.395V-27.472h5.93l.221,2.345a7.516,7.516,0,0,1,6.063-2.788,8.107,8.107,0,0,1,6.882,3.275q2.456,3.275,2.456,9.027Z" transform="translate(63.134 37.518)" fill="#fff"/>
      <path id="Tracé_72418" data-name="Tracé 72418" d="M-14.429-6.67a4,4,0,0,0-3.087,1.289,6.676,6.676,0,0,0-1.516,3.69h8.9V-2.2a4.761,4.761,0,0,0-1.151-3.3A4.123,4.123,0,0,0-14.429-6.67M-13.7,13A11.751,11.751,0,0,1-22.272,9.77a11.48,11.48,0,0,1-3.309-8.608V.544a14.464,14.464,0,0,1,1.394-6.451,10.229,10.229,0,0,1,3.95-4.381,11.082,11.082,0,0,1,5.831-1.538,9.936,9.936,0,0,1,7.734,3.1Q-3.852-5.63-3.852.057V2.668H-19.1a5.94,5.94,0,0,0,1.87,3.761,5.651,5.651,0,0,0,3.95,1.416A6.9,6.9,0,0,0-7.5,5.168L-4.36,8.686a9.606,9.606,0,0,1-3.894,3.176A12.788,12.788,0,0,1-13.7,13" transform="translate(77.863 21.429)" fill="#fff"/>
      <path id="Tracé_72419" data-name="Tracé 72419" d="M-14.429-6.67a4,4,0,0,0-3.087,1.289,6.676,6.676,0,0,0-1.516,3.69h8.9V-2.2a4.761,4.761,0,0,0-1.151-3.3A4.124,4.124,0,0,0-14.429-6.67M-13.7,13A11.751,11.751,0,0,1-22.272,9.77a11.48,11.48,0,0,1-3.309-8.608V.544a14.464,14.464,0,0,1,1.394-6.451,10.229,10.229,0,0,1,3.95-4.381,11.082,11.082,0,0,1,5.831-1.538,9.936,9.936,0,0,1,7.734,3.1Q-3.852-5.63-3.852.057V2.668H-19.1a5.94,5.94,0,0,0,1.87,3.761,5.651,5.651,0,0,0,3.95,1.416A6.9,6.9,0,0,0-7.5,5.168L-4.36,8.686a9.606,9.606,0,0,1-3.894,3.176A12.788,12.788,0,0,1-13.7,13" transform="translate(101.7 21.429)" fill="#fff"/>
      <path id="Tracé_72420" data-name="Tracé 72420" d="M-8.274-28.871A9.45,9.45,0,0,0-7.1-23.707a3.819,3.819,0,0,0,3.407,1.795,4.28,4.28,0,0,0,4.182-2.5v-9.463a4.218,4.218,0,0,0-4.138-2.5q-4.625,0-4.624,7.513m-6.4-.476q0-5.6,2.512-8.918a8.147,8.147,0,0,1,6.87-3.319A7.335,7.335,0,0,1,.489-38.973V-51.187H6.906V-17.2H1.13L.82-19.744a7.525,7.525,0,0,1-6.151,2.987,8.127,8.127,0,0,1-6.782-3.33q-2.555-3.331-2.556-9.26" transform="translate(114.675 51.187)" fill="#fff"/>
      <path id="Tracé_72421" data-name="Tracé 72421" d="M390.133-1127.15h24.628v-3.472H390.133Z" transform="translate(-254.817 1132.392)" fill="#fff"/>
      <path id="Tracé_72422" data-name="Tracé 72422" d="M383.3-1110.667h27.607v-3.472H383.3Z" transform="translate(-250.964 1123.095)" fill="#fff"/>
      <path id="Tracé_72423" data-name="Tracé 72423" d="M385.433-1077.7h26.677v-3.472H385.433Z" transform="translate(-252.166 1104.5)" fill="#fff"/>
      <path id="Tracé_72425" data-name="Tracé 72425" d="M375.648-1094.183h30.943v-3.472H375.648Z" transform="translate(-246.647 1113.798)" fill="#fff"/>
      <path id="Tracé_71472" data-name="Tracé 71472" d="M4121.978,5772.137a7.235,7.235,0,0,1-2.34-5.6,6.941,6.941,0,0,1,1.216-4.052,7.831,7.831,0,0,1,3.331-2.7,11.352,11.352,0,0,1,4.682-.945,15.959,15.959,0,0,1,6.076,1.036v-.99a3.777,3.777,0,0,0-1.417-3.061,5.784,5.784,0,0,0-3.8-1.171,6.988,6.988,0,0,0-3.13.743,7.361,7.361,0,0,0-2.5,1.956l-3.781-2.969a11.111,11.111,0,0,1,4.185-3.334,12.928,12.928,0,0,1,5.492-1.169q5.268,0,8.014,2.432t2.744,7.11v14.138h-5.807v-2.341h-.359a7.815,7.815,0,0,1-2.723,2.2,9.394,9.394,0,0,1-9.883-1.282Zm11.458-4.1a5.512,5.512,0,0,0,1.507-3.849,11.18,11.18,0,0,0-4.816-1.081q-4.593,0-4.592,3.422a2.9,2.9,0,0,0,.989,2.274,4.146,4.146,0,0,0,2.835.876A5.258,5.258,0,0,0,4133.436,5768.041Z" transform="translate(-3934.108 -5740.274)" fill="#fff"/>
    </g>
  </g>
</svg>
