<svg xmlns="http://www.w3.org/2000/svg" xmlns:xlink="http://www.w3.org/1999/xlink" width="24" height="24" viewBox="0 0 24 24">
  <defs>
    <clipPath id="clip-Share">
      <rect width="24" height="24"/>
    </clipPath>
  </defs>
  <g id="Share" clip-path="url(#clip-Share)">
    <g id="picto_share" data-name="picto share" transform="translate(1 2)">
      <path id="Tracé_72311" data-name="Tracé 72311" d="M26.458,14.429a.324.324,0,0,0-.154-.279l-6.318-4.1a.331.331,0,0,0-.344-.01.338.338,0,0,0-.176.3l.006,1.381c-.02.006-.038.01-.057.018-.121.04-.239.081-.378.125A11.407,11.407,0,0,0,16.8,12.959a12.147,12.147,0,0,0-3.516,3.433,13.029,13.029,0,0,0-1.927,4.462,13.2,13.2,0,0,0-.192,4.686.338.338,0,0,0,.669,0,11.209,11.209,0,0,1,1.3-3.9,9.153,9.153,0,0,1,2.381-2.772,7.275,7.275,0,0,1,2.917-1.354,6.542,6.542,0,0,1,1.069-.125l0,1.2a.339.339,0,0,0,.522.279l6.285-4.16A.339.339,0,0,0,26.458,14.429Z" transform="translate(-4.611 -10)" fill="#fff"/>
      <path id="Tracé_72316" data-name="Tracé 72316" d="M9798.8,14777h-10.135v17.656h17.655V14786" transform="translate(-9788.668 -14775.576)" fill="none" stroke="#fff" stroke-linecap="round" stroke-linejoin="round" stroke-width="1.3"/>
    </g>
  </g>
</svg>
