<svg xmlns="http://www.w3.org/2000/svg" xmlns:xlink="http://www.w3.org/1999/xlink" width="221" height="282" viewBox="0 0 221 282">
  <defs>
    <clipPath id="clip-path">
      <rect id="Rectangle_34025" data-name="Rectangle 34025" width="170.334" height="117.001" fill="none"/>
    </clipPath>
    <clipPath id="clip-Ordi_Robot">
      <rect width="221" height="282"/>
    </clipPath>
  </defs>
  <g id="Ordi_Robot" data-name="Ordi Robot" clip-path="url(#clip-Ordi_Robot)">
    <g id="Robot_ordi" data-name="Robot ordi" transform="translate(10 14)">
      <g id="Groupe_7470" data-name="Groupe 7470" transform="translate(20.819 0)">
        <g id="Tracé_71550" data-name="Tracé 71550" transform="translate(-4515.981 -5781.847)" stroke-miterlimit="10">
          <path d="M 4602.296875 5987.9853515625 C 4599.6806640625 5987.9853515625 4597.1669921875 5987.01708984375 4595.21875 5985.25830078125 C 4593.25634765625 5983.4873046875 4592.0361328125 5981.06201171875 4591.7822265625 5978.4296875 C 4591.51220703125 5975.61962890625 4592.35205078125 5972.87255859375 4594.1474609375 5970.69482421875 C 4595.943359375 5968.51708984375 4598.4794921875 5967.16943359375 4601.28857421875 5966.900390625 C 4601.626953125 5966.8681640625 4601.970703125 5966.8515625 4602.31005859375 5966.8515625 C 4604.92626953125 5966.8515625 4607.43896484375 5967.8193359375 4609.38623046875 5969.5771484375 C 4611.34716796875 5971.34765625 4612.56591796875 5973.77197265625 4612.818359375 5976.404296875 C 4613.08935546875 5979.21337890625 4612.25 5981.9609375 4610.4541015625 5984.1396484375 C 4608.658203125 5986.318359375 4606.1220703125 5987.6669921875 4603.3125 5987.93701171875 C 4602.974609375 5987.96923828125 4602.63330078125 5987.9853515625 4602.296875 5987.9853515625 Z" stroke="none"/>
          <path d="M 4602.296875 5986.0517578125 C 4602.5712890625 5986.0517578125 4602.8486328125 5986.03857421875 4603.12744140625 5986.01220703125 C 4607.87255859375 5985.55615234375 4611.35205078125 5981.33642578125 4610.8935546875 5976.5888671875 C 4610.46533203125 5972.12353515625 4606.70751953125 5968.78515625 4602.31005859375 5968.78515625 C 4602.033203125 5968.78515625 4601.75390625 5968.79833984375 4601.47265625 5968.8251953125 C 4596.72802734375 5969.279296875 4593.25048828125 5973.49755859375 4593.70703125 5978.244140625 C 4594.13720703125 5982.7109375 4597.89990234375 5986.0517578125 4602.296875 5986.0517578125 M 4602.296875 5989.9189453125 C 4599.201171875 5989.9189453125 4596.2275390625 5988.7734375 4593.92333984375 5986.69384765625 C 4591.6015625 5984.59814453125 4590.15771484375 5981.72900390625 4589.85791015625 5978.61474609375 C 4589.5380859375 5975.29052734375 4590.53173828125 5972.041015625 4592.65576171875 5969.46484375 C 4594.7802734375 5966.88818359375 4597.78076171875 5965.2939453125 4601.10400390625 5964.9755859375 C 4601.50341796875 5964.9375 4601.90966796875 5964.91796875 4602.31005859375 5964.91796875 C 4605.40576171875 5964.91796875 4608.37890625 5966.06298828125 4610.681640625 5968.14208984375 C 4613.001953125 5970.23681640625 4614.4443359375 5973.10546875 4614.7431640625 5976.2197265625 C 4615.06396484375 5979.54150390625 4614.0703125 5982.7919921875 4611.94580078125 5985.36962890625 C 4609.8212890625 5987.94677734375 4606.8212890625 5989.5419921875 4603.49755859375 5989.861328125 C 4603.09716796875 5989.89990234375 4602.6943359375 5989.9189453125 4602.296875 5989.9189453125 Z" stroke="none" fill="#747575"/>
        </g>
        <path id="Tracé_71551" data-name="Tracé 71551" d="M4687.541,5927.832a6.013,6.013,0,0,1-6.093,6.847c-12.711-.2-18.463-6.913-23.218-12.463-5.237-6.113-9.375-10.943-23.65-9.614l-55.336,5.329a5.988,5.988,0,0,1-6.536-5.388v-.012a5.989,5.989,0,0,1,5.386-6.537l55.355-5.331c20.476-1.905,27.911,6.776,33.889,13.751,4.079,4.759,7.008,8.18,14.288,8.288a6.026,6.026,0,0,1,5.916,5.13Z" transform="translate(-4527.506 -5819.401)" fill="#676c72"/>
        <path id="Tracé_71552" data-name="Tracé 71552" d="M4543.67,5950.729a6.012,6.012,0,0,0,8.156,4.176c11.779-4.789,14.709-13.128,17.13-20.023,2.671-7.6,4.781-13.6,18.567-17.525l6.485-1.624a5.988,5.988,0,0,0,4.311-7.433v0a5.992,5.992,0,0,0-7.221-4.189l-6.842,1.713c-19.774,5.634-23.566,16.42-26.612,25.086-2.078,5.914-3.571,10.162-10.318,12.9a6.024,6.024,0,0,0-3.656,6.925Z" transform="translate(-4543.517 -5817.462)" fill="#676c72"/>
        <rect id="Rectangle_27389" data-name="Rectangle 27389" width="16.813" height="44.276" transform="translate(65.089 62.797) rotate(-5.511)"/>
        <path id="Tracé_71553" data-name="Tracé 71553" d="M4594.637,5952.7a3.644,3.644,0,0,1,3.277-3.976h0a3.646,3.646,0,0,1,3.977,3.277l3.492,36.261a3.643,3.643,0,0,1-3.277,3.976h0a3.644,3.644,0,0,1-3.976-3.277Z" transform="translate(-4515.458 -5792.871)" fill="#c9c9c9"/>
        <path id="Tracé_71554" data-name="Tracé 71554" d="M4615.794,5923.909l-30.293,2.919a3.521,3.521,0,0,0-3.165,3.855l5.056,50.344a3.519,3.519,0,0,0,3.839,3.152l30.294-2.914a3.522,3.522,0,0,0,3.166-3.857l-5.059-50.348A3.519,3.519,0,0,0,4615.794,5923.909Z" transform="translate(-4522.212 -5806.497)" fill="#676c72"/>
        <rect id="Rectangle_27390" data-name="Rectangle 27390" width="61.599" height="65.581" rx="2.681" transform="matrix(0.995, -0.096, 0.096, 0.995, 43.951, 83.85)" fill="#9d9d9d"/>
        <g id="Groupe_6684" data-name="Groupe 6684" transform="translate(44.147)">
          <rect id="Rectangle_27391" data-name="Rectangle 27391" width="1.498" height="23.122" transform="translate(9.889 4.58) rotate(-5.956)" fill="#36464e"/>
          <path id="Tracé_71555" data-name="Tracé 71555" d="M4625.753,5903.8a7.5,7.5,0,0,1-6.65,8.255l-35.024,3.766a7.5,7.5,0,0,1-8.253-6.651l-3.766-35.022a7.5,7.5,0,0,1,6.652-8.252l35.024-3.768a7.5,7.5,0,0,1,8.252,6.65Z" transform="translate(-4572.015 -5840.435)" fill="#9d9d9d"/>
          <path id="Tracé_71556" data-name="Tracé 71556" d="M4602.466,5876.243a10.2,10.2,0,0,1-8.152,11.91h0a10.2,10.2,0,0,1-11.906-8.152h0a10.2,10.2,0,0,1,8.149-11.908h0a10.205,10.205,0,0,1,11.909,8.15Z" transform="translate(-4566.408 -5837.235)"/>
          <path id="Tracé_71557" data-name="Tracé 71557" d="M4595.293,5890.577a12.018,12.018,0,1,1,9.6-14.025A12.031,12.031,0,0,1,4595.293,5890.577Zm-3.759-20.059a8.39,8.39,0,1,0,9.791,6.7A8.4,8.4,0,0,0,4591.534,5870.519Z" transform="translate(-4567.052 -5837.877)" fill="#ced7db"/>
          <path id="Tracé_71558" data-name="Tracé 71558" d="M4603.849,5872.4a2.813,2.813,0,0,1-2.245,3.282h0a2.815,2.815,0,0,1-3.281-2.246h0a2.81,2.81,0,0,1,2.245-3.279h0a2.811,2.811,0,0,1,3.281,2.243Z" transform="translate(-4557.598 -5836.029)"/>
          <path id="Tracé_71559" data-name="Tracé 71559" d="M4582.559,5850.4a2.812,2.812,0,0,1-2.246,3.281h0a2.81,2.81,0,0,1-3.279-2.244h0a2.813,2.813,0,0,1,2.244-3.282h0a2.814,2.814,0,0,1,3.281,2.245Z" transform="translate(-4569.29 -5848.109)"/>
          <rect id="Rectangle_27392" data-name="Rectangle 27392" width="3.471" height="11.315" rx="1.12" transform="translate(14.924 58.561) rotate(-6.132)"/>
          <rect id="Rectangle_27393" data-name="Rectangle 27393" width="3.471" height="11.315" rx="1.12" transform="translate(20.392 57.974) rotate(-6.132)"/>
          <rect id="Rectangle_27394" data-name="Rectangle 27394" width="3.471" height="11.315" rx="1.12" transform="matrix(0.994, -0.107, 0.107, 0.994, 25.86, 57.386)"/>
          <rect id="Rectangle_27395" data-name="Rectangle 27395" width="3.471" height="11.315" rx="1.12" transform="translate(31.328 56.799) rotate(-6.132)"/>
          <rect id="Rectangle_27396" data-name="Rectangle 27396" width="3.471" height="11.315" rx="1.12" transform="translate(36.796 56.212) rotate(-6.132)"/>
        </g>
        <path id="Tracé_71560" data-name="Tracé 71560" d="M4613.513,5903.971l-36.017,3.468a.644.644,0,0,0-.578.71l2.262,21.168a.646.646,0,0,0,.7.575l36.016-3.467a.644.644,0,0,0,.58-.711l-2.263-21.17A.644.644,0,0,0,4613.513,5903.971Z" transform="translate(-4525.182 -5817.438)" fill="#bdbdbd"/>
        <path id="Tracé_71561" data-name="Tracé 71561" d="M4579.787,5906.858l-1.3.118-.55,1.189.754,1.07,1.3-.119.549-1.188Z" transform="translate(-4524.619 -5815.851)" fill="#ced7db"/>
        <path id="Tracé_71562" data-name="Tracé 71562" d="M4580.819,5918.193l-1.3.119-.549,1.188.754,1.069,1.3-.119.549-1.188Z" transform="translate(-4524.054 -5809.625)" fill="#ced7db"/>
        <path id="Tracé_71563" data-name="Tracé 71563" d="M4600.576,5904.965l-1.3.119-.55,1.189.754,1.069,1.3-.119.549-1.187Z" transform="translate(-4513.205 -5816.889)" fill="#ced7db"/>
        <path id="Tracé_71564" data-name="Tracé 71564" d="M4601.607,5916.3l-1.3.119-.549,1.188.754,1.07,1.3-.118.55-1.188Z" transform="translate(-4512.639 -5810.665)" fill="#ced7db"/>
        <rect id="Rectangle_27397" data-name="Rectangle 27397" width="4.001" height="4.001" transform="matrix(0.996, -0.091, 0.091, 0.996, 73.643, 91.603)" fill="#34a853"/>
        <rect id="Rectangle_27398" data-name="Rectangle 27398" width="12.358" height="1.065" transform="matrix(0.996, -0.091, 0.091, 0.996, 57.616, 94.329)" fill="#526c78"/>
        <rect id="Rectangle_27399" data-name="Rectangle 27399" width="12.358" height="1.065" transform="matrix(0.996, -0.091, 0.091, 0.996, 57.882, 97.253)" fill="#526c78"/>
        <rect id="Rectangle_27400" data-name="Rectangle 27400" width="12.358" height="1.065" transform="matrix(0.996, -0.091, 0.091, 0.996, 58.148, 100.176)" fill="#526c78"/>
        <rect id="Rectangle_27401" data-name="Rectangle 27401" width="12.358" height="1.065" transform="matrix(0.996, -0.091, 0.091, 0.996, 58.414, 103.099)" fill="#526c78"/>
        <rect id="Rectangle_27402" data-name="Rectangle 27402" width="12.358" height="1.065" transform="matrix(0.996, -0.091, 0.091, 0.996, 58.68, 106.022)" fill="#526c78"/>
        <rect id="Rectangle_27403" data-name="Rectangle 27403" width="4.001" height="4.001" transform="matrix(0.996, -0.091, 0.091, 0.996, 79.217, 91.096)" fill="#df382b"/>
        <path id="Tracé_71565" data-name="Tracé 71565" d="M4601.207,5972.721l-2.552.232-1.074,2.327,1.478,2.095,2.551-.232,1.076-2.327Z" transform="translate(-4513.833 -5779.685)" fill="#bdbdbd"/>
      </g>
      <g id="Groupe_7471" data-name="Groupe 7471" transform="translate(0 126.423)">
        <g id="Ordi" transform="translate(0 0)">
          <rect id="Rectangle_34024" data-name="Rectangle 34024" width="158.5" height="106.552" transform="translate(21.577 6.357)" fill="#ededed"/>
          <path id="Tracé_72443" data-name="Tracé 72443" d="M7885.279,6687.062V6579.5c0-5.352-4.771-9.441-10.124-9.441H7723.86c-5.353,0-8.915,4.089-8.915,9.441v107.56m5.69-110.644h158.5V6682.97h-158.5Z" transform="translate(-7699.057 -6570.061)" fill="#606060"/>
          <path id="Tracé_72444" data-name="Tracé 72444" d="M7886.743,6737.774c9.38,0,8.423-9.912,8.423-9.912h-201.71s-.109,9.912,9.269,9.912" transform="translate(-7693.456 -6611.197)" fill="#7f7f7f"/>
          <path id="Tracé_72445" data-name="Tracé 72445" d="M7836.9,6734.89h-23.1a1.3,1.3,0,1,1,0-2.591h23.1a1.3,1.3,0,1,1,0,2.591" transform="translate(-7724.491 -6612.354)" fill="#414141"/>
          <g id="Groupe_7465" data-name="Groupe 7465" transform="translate(15.888 0)" opacity="0.2">
            <g id="Groupe_7464" data-name="Groupe 7464">
              <g id="Groupe_7463" data-name="Groupe 7463" clip-path="url(#clip-path)">
                <path id="Tracé_72446" data-name="Tracé 72446" d="M7885.279,6687.062V6579.5c0-5.352-4.771-9.441-10.124-9.441H7723.86c-5.353,0-8.915,4.089-8.915,9.441v107.56m5.69-110.644h158.5V6682.97h-158.5Z" transform="translate(-7714.945 -6570.061)" fill="#25272b"/>
              </g>
            </g>
          </g>
        </g>
        <g id="Groupe_7468" data-name="Groupe 7468" transform="translate(50.39 36.881)">
          <g id="Groupe_7467" data-name="Groupe 7467" transform="translate(0 0)">
            <path id="Tracé_72447" data-name="Tracé 72447" d="M7764.783,6626.458l-.077,35.823-1.278-.006a1.682,1.682,0,0,1-1.814-1.506l.071-32.814a1.683,1.683,0,0,1,1.819-1.5Z" transform="translate(-7761.613 -6621.642)" fill="#676c72"/>
            <g id="Rectangle_34026" data-name="Rectangle 34026" transform="translate(97.673 0.202) rotate(90.122)" fill="none" stroke="#676c72" stroke-miterlimit="10" stroke-width="2.924">
              <path d="M6.43,0H38.873A6.43,6.43,0,0,1,45.3,6.43V89.4a5.458,5.458,0,0,1-5.458,5.458H5.458A5.458,5.458,0,0,1,0,89.4V6.43A6.43,6.43,0,0,1,6.43,0Z" stroke="none"/>
              <path d="M6.43,1.462H38.873A4.968,4.968,0,0,1,43.841,6.43V89.4a4,4,0,0,1-4,4H5.458a4,4,0,0,1-4-4V6.43A4.968,4.968,0,0,1,6.43,1.462Z" fill="none"/>
            </g>
            <path id="Rectangle_34027" data-name="Rectangle 34027" d="M2.455,0H6.708A2.455,2.455,0,0,1,9.164,2.455V5.472a0,0,0,0,1,0,0H0a0,0,0,0,1,0,0V2.455A2.455,2.455,0,0,1,2.455,0Z" transform="translate(103.106 18.289) rotate(90.122)" fill="#676c72"/>
          </g>
          <rect id="Rectangle_34028" data-name="Rectangle 34028" width="9.061" height="36.578" transform="translate(7.831 4.06)" fill="#ea4335"/>
          <rect id="Rectangle_34029" data-name="Rectangle 34029" width="9.061" height="36.578" transform="translate(18.654 4.06)" fill="#ea4335"/>
          <rect id="Rectangle_34030" data-name="Rectangle 34030" width="9.061" height="36.578" transform="translate(29.477 4.06)" fill="#fabb05"/>
          <rect id="Rectangle_34031" data-name="Rectangle 34031" width="9.061" height="36.578" transform="translate(40.3 4.06)" fill="#fabb05"/>
          <rect id="Rectangle_34032" data-name="Rectangle 34032" width="9.061" height="36.578" transform="translate(51.123 4.06)" fill="#00b872"/>
          <rect id="Rectangle_34033" data-name="Rectangle 34033" width="9.061" height="36.578" transform="translate(61.946 4.06)" fill="#00b872"/>
          <rect id="Rectangle_34034" data-name="Rectangle 34034" width="9.061" height="36.578" transform="translate(72.769 4.06)" fill="#00b872"/>
          <rect id="Rectangle_34035" data-name="Rectangle 34035" width="9.061" height="36.578" transform="translate(83.592 4.06)" fill="#00b872"/>
        </g>
      </g>
    </g>
  </g>
</svg>
