<svg xmlns:svg="http://www.w3.org/2000/svg"
    xmlns="http://www.w3.org/2000/svg" viewBox="0 0 100 100">
    <g transform="translate(0,-952.36218)">
        <path  d="m 42.993568,958.36217 c -9.377,0 -17,7.623 -17,17 0,3.69283 1.1369,7.70796 3.1875,10.5625 a 1.0001,1.0001 0 1 0 1.625,-1.15625 c -1.7215,-2.39632 -2.8125,-6.1403 -2.8125,-9.40625 0,-8.29612 6.7039,-15 15,-15 8.2961,0 15,6.70388 15,15 0,3.26595 -1.091,7.00993 -2.8125,9.40625 a 1.0001,1.0001 0 1 0 1.625,1.15625 c 2.0507,-2.85454 3.1875,-6.86967 3.1875,-10.5625 0,-9.377 -7.623,-17 -17,-17 z m 0,14 c -3.8606,0 -7,3.13929 -7,7 l 0,31.71873 -2.0938,-4.1875 c -1.2001,-2.3485 -3.204,-4.7411 -5.4374,-5.3437 -1.8852,-0.5195 -3.6119,0.1514 -4.9688,0.9375 -1.7201,1.01 -2.8444,2.4494 -3.2812,3.9062 -0.4999,2.0418 -0.08,4.0982 0.8437,6.3438 4.5706,11.222 11.5628,24.5567 19.1875,33.2812 0.186,0.214 0.4666,0.3425 0.75,0.3438 l 27,0 c 0.2145,-0.01 0.4263,-0.085 0.5938,-0.2188 2.6257,-1.9451 4.8955,-5.4497 6.7812,-9.6875 1.8857,-4.2377 3.4014,-9.1852 4.0938,-14 0.719,-4.9993 0.7954,-9.4713 -0.25,-13.1562 -1.0454,-3.6849 -3.3853,-6.5034 -7.0938,-6.9375 -1.2956,-0.011 -2.4226,0.08 -3.4375,0.6562 -0.3445,-1.5306 -1.0453,-2.8003 -2.0313,-3.49998 -1.2782,-0.90713 -2.6938,-1.17264 -3.6874,-1.15625 -1.3817,0.0231 -2.4958,0.75926 -3.4688,1.78123 -0.4051,-1.10331 -0.9675,-2.02546 -1.75,-2.59373 -1.2577,-0.91335 -2.6893,-1.1875 -3.75,-1.1875 -1.4059,0 -2.822,0.53119 -4,1.40625 l 0,-18.40625 c -0.087,-4.54345 -3.7491,-7.02585 -7,-7 z m 0,2 c 2.7872,0 5,2.21269 5,5 l 0,21.00003 c 0.01,0.448 0.3429,0.8753 0.7812,0.9687 0.4384,0.093 0.9355,-0.1564 1.125,-0.5625 0.6555,-1.36243 2.5965,-2.40623 4.0938,-2.40623 0.6771,0 1.7547,0.1946 2.5625,0.78125 0.8079,0.58665 1.4375,1.49058 1.4375,3.21878 -0.01,0.4532 0.3394,0.8986 0.7812,1 0.4419,0.1014 0.9334,-0.1518 1.125,-0.5625 0.9065,-1.8133 1.7584,-2.4147 3.125,-2.4375 0.516,-0.01 1.6245,0.1821 2.4688,0.7812 0.8442,0.5991 1.5,1.5096 1.5,3.2188 0.01,0.7737 1.1255,1.2506 1.6875,0.7187 0.1938,-0.1799 0.7268,-0.432 1.375,-0.5625 0.6482,-0.1305 1.3891,-0.1562 1.9375,-0.1562 2.7706,0.3789 4.378,2.2847 5.2812,5.4687 0.918,3.2357 0.9317,7.6908 0.2188,12.3125 -0.7129,4.6217 -2.1326,9.4438 -3.9375,13.5 -1.7586,3.9523 -3.9296,7.1036 -6,8.7188 l -26.0625,0 c -7.2585,-8.4285 -14.1058,-21.4327 -18.5625,-32.375 -0.948,-2.44 -1.1101,-3.9997 -0.8125,-5.0625 0.5046,-1.3951 1.4517,-2.2056 2.4375,-2.75 1.1217,-0.6399 2.2268,-1.004 3.375,-0.6875 2.3401,1.1364 3.1939,2.5601 4.1875,4.3437 l 3.9688,7.9688 c 0.1917,0.4107 0.6832,0.6639 1.125,0.5625 0.4418,-0.1014 0.7878,-0.5468 0.7812,-1 l 0,-36.00003 c 0,-2.78731 2.2128,-5 5,-5 z" fill="white"/>
    </g>
</svg>