<svg xmlns="http://www.w3.org/2000/svg" xmlns:xlink="http://www.w3.org/1999/xlink" width="504" height="867" viewBox="0 0 504 867">
  <defs>
    <clipPath id="clip-Vall_vertical">
      <rect width="504" height="867"/>
    </clipPath>
  </defs>
  <g id="Vall_vertical" data-name="Vall vertical" clip-path="url(#clip-Vall_vertical)">
    <g id="Mur_mobile" data-name="Mur mobile" transform="translate(12465.3 11726.999)">
      <rect id="Rectangle_26585" data-name="Rectangle 26585" width="74.076" height="27.287" transform="translate(-12191.552 -11726.999)" fill="#f4b400"/>
      <rect id="Rectangle_26586" data-name="Rectangle 26586" width="74.076" height="27.287" transform="translate(-12191.552 -11664.803)" fill="#f4b400"/>
      <rect id="Rectangle_26587" data-name="Rectangle 26587" width="74.076" height="27.287" transform="translate(-12191.552 -11602.606)" fill="#f4b400"/>
      <rect id="Rectangle_26588" data-name="Rectangle 26588" width="74.076" height="27.287" transform="translate(-12191.552 -11540.41)" fill="#f4b400"/>
      <rect id="Rectangle_26589" data-name="Rectangle 26589" width="74.076" height="27.287" transform="translate(-12191.552 -11478.214)" fill="#f4b400"/>
      <rect id="Rectangle_26590" data-name="Rectangle 26590" width="74.076" height="27.287" transform="translate(-12191.552 -11416.018)" fill="#f4b400"/>
      <rect id="Rectangle_26591" data-name="Rectangle 26591" width="74.076" height="27.287" transform="translate(-12191.552 -11353.821)" fill="#f4b400"/>
      <rect id="Rectangle_26592" data-name="Rectangle 26592" width="74.076" height="27.287" transform="translate(-12191.552 -11291.625)" fill="#f4b400"/>
      <rect id="Rectangle_26593" data-name="Rectangle 26593" width="74.076" height="27.287" transform="translate(-12191.553 -11229.186)" fill="#f4b400"/>
      <rect id="Rectangle_26594" data-name="Rectangle 26594" width="74.076" height="27.287" transform="translate(-12191.553 -11166.989)" fill="#f4b400"/>
      <rect id="Rectangle_26597" data-name="Rectangle 26597" width="74.076" height="27.287" transform="translate(-12230.542 -11695.9)" fill="#f4b400"/>
      <rect id="Rectangle_26598" data-name="Rectangle 26598" width="74.076" height="27.287" transform="translate(-12230.542 -11633.705)" fill="#f4b400"/>
      <rect id="Rectangle_26599" data-name="Rectangle 26599" width="74.076" height="27.287" transform="translate(-12230.542 -11571.508)" fill="#f4b400"/>
      <rect id="Rectangle_26600" data-name="Rectangle 26600" width="74.076" height="27.287" transform="translate(-12230.542 -11509.313)" fill="#f4b400"/>
      <rect id="Rectangle_26601" data-name="Rectangle 26601" width="74.076" height="27.287" transform="translate(-12230.542 -11447.115)" fill="#f4b400"/>
      <rect id="Rectangle_26602" data-name="Rectangle 26602" width="74.076" height="27.287" transform="translate(-12230.542 -11384.92)" fill="#f4b400"/>
      <rect id="Rectangle_26603" data-name="Rectangle 26603" width="74.076" height="27.287" transform="translate(-12230.542 -11322.723)" fill="#f4b400"/>
      <rect id="Rectangle_26604" data-name="Rectangle 26604" width="74.076" height="27.287" transform="translate(-12230.543 -11260.283)" fill="#f4b400"/>
      <rect id="Rectangle_26605" data-name="Rectangle 26605" width="74.076" height="27.287" transform="translate(-12230.543 -11198.088)" fill="#f4b400"/>
      <rect id="Rectangle_26606" data-name="Rectangle 26606" width="74.076" height="27.287" transform="translate(-12230.543 -11135.891)" fill="#f4b400"/>
      <rect id="Rectangle_26585-2" data-name="Rectangle 26585" width="74.076" height="27.287" transform="translate(-12269.02 -11726.999)" fill="#f4b400"/>
      <rect id="Rectangle_26586-2" data-name="Rectangle 26586" width="74.076" height="27.287" transform="translate(-12269.02 -11664.803)" fill="#f4b400"/>
      <rect id="Rectangle_26587-2" data-name="Rectangle 26587" width="74.076" height="27.287" transform="translate(-12269.02 -11602.606)" fill="#f4b400"/>
      <rect id="Rectangle_26588-2" data-name="Rectangle 26588" width="74.076" height="27.287" transform="translate(-12269.02 -11540.41)" fill="#f4b400"/>
      <rect id="Rectangle_26589-2" data-name="Rectangle 26589" width="74.076" height="27.287" transform="translate(-12269.02 -11478.214)" fill="#f4b400"/>
      <rect id="Rectangle_26590-2" data-name="Rectangle 26590" width="74.076" height="27.287" transform="translate(-12269.02 -11416.018)" fill="#f4b400"/>
      <rect id="Rectangle_26591-2" data-name="Rectangle 26591" width="74.076" height="27.287" transform="translate(-12269.02 -11353.821)" fill="#f4b400"/>
      <rect id="Rectangle_26592-2" data-name="Rectangle 26592" width="74.076" height="27.287" transform="translate(-12269.02 -11291.625)" fill="#f4b400"/>
      <rect id="Rectangle_26593-2" data-name="Rectangle 26593" width="74.076" height="27.287" transform="translate(-12269.02 -11229.186)" fill="#f4b400"/>
      <rect id="Rectangle_26594-2" data-name="Rectangle 26594" width="74.076" height="27.287" transform="translate(-12269.02 -11166.989)" fill="#f4b400"/>
      <rect id="Rectangle_26608" data-name="Rectangle 26608" width="74.076" height="27.287" transform="translate(-12112.93 -11726.999)" fill="#f4b400"/>
      <rect id="Rectangle_26609" data-name="Rectangle 26609" width="74.076" height="27.287" transform="translate(-12112.93 -11664.803)" fill="#f4b400"/>
      <rect id="Rectangle_26610" data-name="Rectangle 26610" width="74.076" height="27.287" transform="translate(-12112.93 -11602.606)" fill="#f4b400"/>
      <rect id="Rectangle_26611" data-name="Rectangle 26611" width="74.076" height="27.287" transform="translate(-12112.93 -11540.41)" fill="#f4b400"/>
      <rect id="Rectangle_26612" data-name="Rectangle 26612" width="74.076" height="27.287" transform="translate(-12112.93 -11478.214)" fill="#f4b400"/>
      <rect id="Rectangle_26613" data-name="Rectangle 26613" width="74.076" height="27.287" transform="translate(-12112.93 -11416.018)" fill="#f4b400"/>
      <rect id="Rectangle_26614" data-name="Rectangle 26614" width="74.076" height="27.287" transform="translate(-12112.93 -11353.821)" fill="#f4b400"/>
      <rect id="Rectangle_26615" data-name="Rectangle 26615" width="74.076" height="27.287" transform="translate(-12112.93 -11291.625)" fill="#f4b400"/>
      <rect id="Rectangle_26616" data-name="Rectangle 26616" width="74.076" height="27.287" transform="translate(-12112.931 -11229.186)" fill="#f4b400"/>
      <rect id="Rectangle_26617" data-name="Rectangle 26617" width="74.076" height="27.287" transform="translate(-12112.931 -11166.989)" fill="#f4b400"/>
      <rect id="Rectangle_26620" data-name="Rectangle 26620" width="74.076" height="27.287" transform="translate(-12151.92 -11695.9)" fill="#f4b400"/>
      <rect id="Rectangle_26621" data-name="Rectangle 26621" width="74.076" height="27.287" transform="translate(-12151.92 -11633.705)" fill="#f4b400"/>
      <rect id="Rectangle_26622" data-name="Rectangle 26622" width="74.076" height="27.287" transform="translate(-12151.92 -11571.508)" fill="#f4b400"/>
      <rect id="Rectangle_26623" data-name="Rectangle 26623" width="74.076" height="27.287" transform="translate(-12151.92 -11509.313)" fill="#f4b400"/>
      <rect id="Rectangle_26624" data-name="Rectangle 26624" width="74.076" height="27.287" transform="translate(-12151.92 -11447.115)" fill="#f4b400"/>
      <rect id="Rectangle_26625" data-name="Rectangle 26625" width="74.076" height="27.287" transform="translate(-12151.92 -11384.92)" fill="#f4b400"/>
      <rect id="Rectangle_26626" data-name="Rectangle 26626" width="74.076" height="27.287" transform="translate(-12151.92 -11322.723)" fill="#f4b400"/>
      <rect id="Rectangle_26627" data-name="Rectangle 26627" width="74.076" height="27.287" transform="translate(-12151.921 -11260.283)" fill="#f4b400"/>
      <rect id="Rectangle_26628" data-name="Rectangle 26628" width="74.076" height="27.287" transform="translate(-12151.921 -11198.088)" fill="#f4b400"/>
      <rect id="Rectangle_26629" data-name="Rectangle 26629" width="74.076" height="27.287" transform="translate(-12151.921 -11135.891)" fill="#f4b400"/>
      <rect id="Rectangle_26631" data-name="Rectangle 26631" width="74.076" height="27.287" transform="translate(-12034.309 -11726.999)" fill="#f4b400"/>
      <rect id="Rectangle_26632" data-name="Rectangle 26632" width="74.076" height="27.287" transform="translate(-12034.309 -11664.803)" fill="#f4b400"/>
      <rect id="Rectangle_26633" data-name="Rectangle 26633" width="74.076" height="27.287" transform="translate(-12034.309 -11602.606)" fill="#f4b400"/>
      <rect id="Rectangle_26634" data-name="Rectangle 26634" width="74.076" height="27.287" transform="translate(-12034.309 -11540.41)" fill="#f4b400"/>
      <rect id="Rectangle_26635" data-name="Rectangle 26635" width="74.076" height="27.287" transform="translate(-12034.309 -11478.214)" fill="#f4b400"/>
      <rect id="Rectangle_26636" data-name="Rectangle 26636" width="74.076" height="27.287" transform="translate(-12034.309 -11416.018)" fill="#f4b400"/>
      <rect id="Rectangle_26637" data-name="Rectangle 26637" width="74.076" height="27.287" transform="translate(-12034.309 -11353.821)" fill="#f4b400"/>
      <rect id="Rectangle_26638" data-name="Rectangle 26638" width="74.076" height="27.287" transform="translate(-12034.309 -11291.625)" fill="#f4b400"/>
      <rect id="Rectangle_26639" data-name="Rectangle 26639" width="74.076" height="27.287" transform="translate(-12034.31 -11229.186)" fill="#f4b400"/>
      <rect id="Rectangle_26640" data-name="Rectangle 26640" width="74.076" height="27.287" transform="translate(-12034.31 -11166.989)" fill="#f4b400"/>
      <rect id="Rectangle_26643" data-name="Rectangle 26643" width="74.076" height="27.287" transform="translate(-12073.299 -11695.9)" fill="#f4b400"/>
      <rect id="Rectangle_26644" data-name="Rectangle 26644" width="74.076" height="27.287" transform="translate(-12073.299 -11633.705)" fill="#f4b400"/>
      <rect id="Rectangle_26645" data-name="Rectangle 26645" width="74.076" height="27.287" transform="translate(-12073.299 -11571.508)" fill="#f4b400"/>
      <rect id="Rectangle_26646" data-name="Rectangle 26646" width="74.076" height="27.287" transform="translate(-12073.299 -11509.313)" fill="#f4b400"/>
      <rect id="Rectangle_26647" data-name="Rectangle 26647" width="74.076" height="27.287" transform="translate(-12073.299 -11447.115)" fill="#f4b400"/>
      <rect id="Rectangle_26648" data-name="Rectangle 26648" width="74.076" height="27.287" transform="translate(-12073.299 -11384.92)" fill="#f4b400"/>
      <rect id="Rectangle_26649" data-name="Rectangle 26649" width="74.076" height="27.287" transform="translate(-12073.299 -11322.723)" fill="#f4b400"/>
      <rect id="Rectangle_26650" data-name="Rectangle 26650" width="74.076" height="27.287" transform="translate(-12073.3 -11260.283)" fill="#f4b400"/>
      <rect id="Rectangle_26651" data-name="Rectangle 26651" width="74.076" height="27.287" transform="translate(-12073.3 -11198.088)" fill="#f4b400"/>
      <rect id="Rectangle_26652" data-name="Rectangle 26652" width="74.076" height="27.287" transform="translate(-12073.3 -11135.891)" fill="#f4b400"/>
      <rect id="Rectangle_26585-3" data-name="Rectangle 26585" width="74.076" height="27.287" transform="translate(-12191.552 -11104.604)" fill="#f4b400"/>
      <rect id="Rectangle_26586-3" data-name="Rectangle 26586" width="74.076" height="27.287" transform="translate(-12191.552 -11042.408)" fill="#f4b400"/>
      <rect id="Rectangle_26587-3" data-name="Rectangle 26587" width="74.076" height="27.287" transform="translate(-12191.552 -10980.212)" fill="#f4b400"/>
      <rect id="Rectangle_26588-3" data-name="Rectangle 26588" width="74.076" height="27.287" transform="translate(-12191.552 -10918.016)" fill="#f4b400"/>
      <rect id="Rectangle_26597-2" data-name="Rectangle 26597" width="74.076" height="27.287" transform="translate(-12230.542 -11073.506)" fill="#f4b400"/>
      <rect id="Rectangle_26598-2" data-name="Rectangle 26598" width="74.076" height="27.287" transform="translate(-12230.542 -11011.311)" fill="#f4b400"/>
      <rect id="Rectangle_26599-2" data-name="Rectangle 26599" width="74.076" height="27.287" transform="translate(-12230.542 -10949.113)" fill="#f4b400"/>
      <rect id="Rectangle_26600-2" data-name="Rectangle 26600" width="74.076" height="27.287" transform="translate(-12230.542 -10886.918)" fill="#f4b400"/>
      <rect id="Rectangle_26585-4" data-name="Rectangle 26585" width="74.076" height="27.287" transform="translate(-12269.02 -11104.604)" fill="#f4b400"/>
      <rect id="Rectangle_26586-4" data-name="Rectangle 26586" width="74.076" height="27.287" transform="translate(-12269.02 -11042.408)" fill="#f4b400"/>
      <rect id="Rectangle_26587-4" data-name="Rectangle 26587" width="74.076" height="27.287" transform="translate(-12269.02 -10980.212)" fill="#f4b400"/>
      <rect id="Rectangle_26588-4" data-name="Rectangle 26588" width="74.076" height="27.287" transform="translate(-12269.02 -10918.016)" fill="#f4b400"/>
      <rect id="Rectangle_26608-2" data-name="Rectangle 26608" width="74.076" height="27.287" transform="translate(-12112.93 -11104.604)" fill="#f4b400"/>
      <rect id="Rectangle_26609-2" data-name="Rectangle 26609" width="74.076" height="27.287" transform="translate(-12112.93 -11042.408)" fill="#f4b400"/>
      <rect id="Rectangle_26610-2" data-name="Rectangle 26610" width="74.076" height="27.287" transform="translate(-12112.93 -10980.212)" fill="#f4b400"/>
      <rect id="Rectangle_26611-2" data-name="Rectangle 26611" width="74.076" height="27.287" transform="translate(-12112.93 -10918.016)" fill="#f4b400"/>
      <rect id="Rectangle_26620-2" data-name="Rectangle 26620" width="74.076" height="27.287" transform="translate(-12151.92 -11073.506)" fill="#f4b400"/>
      <rect id="Rectangle_26621-2" data-name="Rectangle 26621" width="74.076" height="27.287" transform="translate(-12151.92 -11011.311)" fill="#f4b400"/>
      <rect id="Rectangle_26622-2" data-name="Rectangle 26622" width="74.076" height="27.287" transform="translate(-12151.92 -10949.113)" fill="#f4b400"/>
      <rect id="Rectangle_26623-2" data-name="Rectangle 26623" width="74.076" height="27.287" transform="translate(-12151.92 -10886.918)" fill="#f4b400"/>
      <rect id="Rectangle_26631-2" data-name="Rectangle 26631" width="74.076" height="27.287" transform="translate(-12034.309 -11104.604)" fill="#f4b400"/>
      <rect id="Rectangle_26632-2" data-name="Rectangle 26632" width="74.076" height="27.287" transform="translate(-12034.309 -11042.408)" fill="#f4b400"/>
      <rect id="Rectangle_26633-2" data-name="Rectangle 26633" width="74.076" height="27.287" transform="translate(-12034.309 -10980.212)" fill="#f4b400"/>
      <rect id="Rectangle_26634-2" data-name="Rectangle 26634" width="74.076" height="27.287" transform="translate(-12034.309 -10918.016)" fill="#f4b400"/>
      <rect id="Rectangle_26643-2" data-name="Rectangle 26643" width="74.076" height="27.287" transform="translate(-12073.299 -11073.506)" fill="#f4b400"/>
      <rect id="Rectangle_26644-2" data-name="Rectangle 26644" width="74.076" height="27.287" transform="translate(-12073.299 -11011.311)" fill="#f4b400"/>
      <rect id="Rectangle_26645-2" data-name="Rectangle 26645" width="74.076" height="27.287" transform="translate(-12073.299 -10949.113)" fill="#f4b400"/>
      <rect id="Rectangle_26646-2" data-name="Rectangle 26646" width="74.076" height="27.287" transform="translate(-12073.299 -10886.918)" fill="#f4b400"/>
      <rect id="Rectangle_26631-3" data-name="Rectangle 26631" width="74.076" height="27.287" transform="translate(-12426.309 -11726.999)" fill="#f4b400"/>
      <rect id="Rectangle_26632-3" data-name="Rectangle 26632" width="74.076" height="27.287" transform="translate(-12426.309 -11664.803)" fill="#f4b400"/>
      <rect id="Rectangle_26633-3" data-name="Rectangle 26633" width="74.076" height="27.287" transform="translate(-12426.309 -11602.606)" fill="#f4b400"/>
      <rect id="Rectangle_26634-3" data-name="Rectangle 26634" width="74.076" height="27.287" transform="translate(-12426.309 -11540.41)" fill="#f4b400"/>
      <rect id="Rectangle_26635-2" data-name="Rectangle 26635" width="74.076" height="27.287" transform="translate(-12426.309 -11478.214)" fill="#f4b400"/>
      <rect id="Rectangle_26636-2" data-name="Rectangle 26636" width="74.076" height="27.287" transform="translate(-12426.309 -11416.018)" fill="#f4b400"/>
      <rect id="Rectangle_26637-2" data-name="Rectangle 26637" width="74.076" height="27.287" transform="translate(-12426.309 -11353.821)" fill="#f4b400"/>
      <rect id="Rectangle_26638-2" data-name="Rectangle 26638" width="74.076" height="27.287" transform="translate(-12426.309 -11291.625)" fill="#f4b400"/>
      <rect id="Rectangle_26639-2" data-name="Rectangle 26639" width="74.076" height="27.287" transform="translate(-12426.31 -11229.186)" fill="#f4b400"/>
      <rect id="Rectangle_26640-2" data-name="Rectangle 26640" width="74.076" height="27.287" transform="translate(-12426.31 -11166.989)" fill="#f4b400"/>
      <rect id="Rectangle_26643-3" data-name="Rectangle 26643" width="74.076" height="27.287" transform="translate(-12465.299 -11695.9)" fill="#f4b400"/>
      <rect id="Rectangle_26644-3" data-name="Rectangle 26644" width="74.076" height="27.287" transform="translate(-12465.299 -11633.705)" fill="#f4b400"/>
      <rect id="Rectangle_26645-3" data-name="Rectangle 26645" width="74.076" height="27.287" transform="translate(-12465.299 -11571.508)" fill="#f4b400"/>
      <rect id="Rectangle_26646-3" data-name="Rectangle 26646" width="74.076" height="27.287" transform="translate(-12465.299 -11509.313)" fill="#f4b400"/>
      <rect id="Rectangle_26647-2" data-name="Rectangle 26647" width="74.076" height="27.287" transform="translate(-12465.299 -11447.115)" fill="#f4b400"/>
      <rect id="Rectangle_26648-2" data-name="Rectangle 26648" width="74.076" height="27.287" transform="translate(-12465.299 -11384.92)" fill="#f4b400"/>
      <rect id="Rectangle_26649-2" data-name="Rectangle 26649" width="74.076" height="27.287" transform="translate(-12465.299 -11322.723)" fill="#f4b400"/>
      <rect id="Rectangle_26650-2" data-name="Rectangle 26650" width="74.076" height="27.287" transform="translate(-12465.3 -11260.283)" fill="#f4b400"/>
      <rect id="Rectangle_26651-2" data-name="Rectangle 26651" width="74.076" height="27.287" transform="translate(-12465.3 -11198.088)" fill="#f4b400"/>
      <rect id="Rectangle_26652-2" data-name="Rectangle 26652" width="74.076" height="27.287" transform="translate(-12465.3 -11135.891)" fill="#f4b400"/>
      <rect id="Rectangle_26654" data-name="Rectangle 26654" width="74.076" height="27.287" transform="translate(-12347.688 -11726.999)" fill="#f4b400"/>
      <rect id="Rectangle_26655" data-name="Rectangle 26655" width="74.076" height="27.287" transform="translate(-12347.688 -11664.803)" fill="#f4b400"/>
      <rect id="Rectangle_26656" data-name="Rectangle 26656" width="74.076" height="27.287" transform="translate(-12347.688 -11602.606)" fill="#f4b400"/>
      <rect id="Rectangle_26657" data-name="Rectangle 26657" width="74.076" height="27.287" transform="translate(-12347.688 -11540.41)" fill="#f4b400"/>
      <rect id="Rectangle_26658" data-name="Rectangle 26658" width="74.076" height="27.287" transform="translate(-12347.688 -11478.214)" fill="#f4b400"/>
      <rect id="Rectangle_26659" data-name="Rectangle 26659" width="74.076" height="27.287" transform="translate(-12347.688 -11416.018)" fill="#f4b400"/>
      <rect id="Rectangle_26660" data-name="Rectangle 26660" width="74.076" height="27.287" transform="translate(-12347.688 -11353.821)" fill="#f4b400"/>
      <rect id="Rectangle_26661" data-name="Rectangle 26661" width="74.076" height="27.287" transform="translate(-12347.688 -11291.625)" fill="#f4b400"/>
      <rect id="Rectangle_26662" data-name="Rectangle 26662" width="74.076" height="27.287" transform="translate(-12347.688 -11229.186)" fill="#f4b400"/>
      <rect id="Rectangle_26663" data-name="Rectangle 26663" width="74.076" height="27.287" transform="translate(-12347.688 -11166.989)" fill="#f4b400"/>
      <rect id="Rectangle_26666" data-name="Rectangle 26666" width="74.076" height="27.287" transform="translate(-12386.678 -11695.9)" fill="#f4b400"/>
      <rect id="Rectangle_26667" data-name="Rectangle 26667" width="74.076" height="27.287" transform="translate(-12386.678 -11633.705)" fill="#f4b400"/>
      <rect id="Rectangle_26668" data-name="Rectangle 26668" width="74.076" height="27.287" transform="translate(-12386.678 -11571.508)" fill="#f4b400"/>
      <rect id="Rectangle_26669" data-name="Rectangle 26669" width="74.076" height="27.287" transform="translate(-12386.678 -11509.313)" fill="#f4b400"/>
      <rect id="Rectangle_26670" data-name="Rectangle 26670" width="74.076" height="27.287" transform="translate(-12386.678 -11447.115)" fill="#f4b400"/>
      <rect id="Rectangle_26671" data-name="Rectangle 26671" width="74.076" height="27.287" transform="translate(-12386.678 -11384.92)" fill="#f4b400"/>
      <rect id="Rectangle_26672" data-name="Rectangle 26672" width="74.076" height="27.287" transform="translate(-12386.678 -11322.723)" fill="#f4b400"/>
      <rect id="Rectangle_26673" data-name="Rectangle 26673" width="74.076" height="27.287" transform="translate(-12386.679 -11260.283)" fill="#f4b400"/>
      <rect id="Rectangle_26674" data-name="Rectangle 26674" width="74.076" height="27.287" transform="translate(-12386.679 -11198.088)" fill="#f4b400"/>
      <rect id="Rectangle_26675" data-name="Rectangle 26675" width="74.076" height="27.287" transform="translate(-12386.679 -11135.891)" fill="#f4b400"/>
      <rect id="Rectangle_26689" data-name="Rectangle 26689" width="74.076" height="27.287" transform="translate(-12308.057 -11695.9)" fill="#f4b400"/>
      <rect id="Rectangle_26690" data-name="Rectangle 26690" width="74.076" height="27.287" transform="translate(-12308.057 -11633.705)" fill="#f4b400"/>
      <rect id="Rectangle_26691" data-name="Rectangle 26691" width="74.076" height="27.287" transform="translate(-12308.057 -11571.508)" fill="#f4b400"/>
      <rect id="Rectangle_26692" data-name="Rectangle 26692" width="74.076" height="27.287" transform="translate(-12308.057 -11509.313)" fill="#f4b400"/>
      <rect id="Rectangle_26693" data-name="Rectangle 26693" width="74.076" height="27.287" transform="translate(-12308.057 -11447.115)" fill="#f4b400"/>
      <rect id="Rectangle_26694" data-name="Rectangle 26694" width="74.076" height="27.287" transform="translate(-12308.057 -11384.92)" fill="#f4b400"/>
      <rect id="Rectangle_26695" data-name="Rectangle 26695" width="74.076" height="27.287" transform="translate(-12308.057 -11322.723)" fill="#f4b400"/>
      <rect id="Rectangle_26696" data-name="Rectangle 26696" width="74.076" height="27.287" transform="translate(-12308.057 -11260.283)" fill="#f4b400"/>
      <rect id="Rectangle_26697" data-name="Rectangle 26697" width="74.076" height="27.287" transform="translate(-12308.057 -11198.088)" fill="#f4b400"/>
      <rect id="Rectangle_26698" data-name="Rectangle 26698" width="74.076" height="27.287" transform="translate(-12308.057 -11135.891)" fill="#f4b400"/>
      <rect id="Rectangle_26631-4" data-name="Rectangle 26631" width="74.076" height="27.287" transform="translate(-12426.309 -11104.604)" fill="#f4b400"/>
      <rect id="Rectangle_26632-4" data-name="Rectangle 26632" width="74.076" height="27.287" transform="translate(-12426.309 -11042.408)" fill="#f4b400"/>
      <rect id="Rectangle_26633-4" data-name="Rectangle 26633" width="74.076" height="27.287" transform="translate(-12426.309 -10980.212)" fill="#f4b400"/>
      <rect id="Rectangle_26634-4" data-name="Rectangle 26634" width="74.076" height="27.287" transform="translate(-12426.309 -10918.016)" fill="#f4b400"/>
      <rect id="Rectangle_26643-4" data-name="Rectangle 26643" width="74.076" height="27.287" transform="translate(-12465.299 -11073.506)" fill="#f4b400"/>
      <rect id="Rectangle_26644-4" data-name="Rectangle 26644" width="74.076" height="27.287" transform="translate(-12465.299 -11011.311)" fill="#f4b400"/>
      <rect id="Rectangle_26645-4" data-name="Rectangle 26645" width="74.076" height="27.287" transform="translate(-12465.299 -10949.113)" fill="#f4b400"/>
      <rect id="Rectangle_26646-4" data-name="Rectangle 26646" width="74.076" height="27.287" transform="translate(-12465.299 -10886.918)" fill="#f4b400"/>
      <rect id="Rectangle_26654-2" data-name="Rectangle 26654" width="74.076" height="27.287" transform="translate(-12347.688 -11104.604)" fill="#f4b400"/>
      <rect id="Rectangle_26655-2" data-name="Rectangle 26655" width="74.076" height="27.287" transform="translate(-12347.688 -11042.408)" fill="#f4b400"/>
      <rect id="Rectangle_26656-2" data-name="Rectangle 26656" width="74.076" height="27.287" transform="translate(-12347.688 -10980.212)" fill="#f4b400"/>
      <rect id="Rectangle_26657-2" data-name="Rectangle 26657" width="74.076" height="27.287" transform="translate(-12347.688 -10918.016)" fill="#f4b400"/>
      <rect id="Rectangle_26666-2" data-name="Rectangle 26666" width="74.076" height="27.287" transform="translate(-12386.678 -11073.506)" fill="#f4b400"/>
      <rect id="Rectangle_26667-2" data-name="Rectangle 26667" width="74.076" height="27.287" transform="translate(-12386.678 -11011.311)" fill="#f4b400"/>
      <rect id="Rectangle_26668-2" data-name="Rectangle 26668" width="74.076" height="27.287" transform="translate(-12386.678 -10949.113)" fill="#f4b400"/>
      <rect id="Rectangle_26669-2" data-name="Rectangle 26669" width="74.076" height="27.287" transform="translate(-12386.678 -10886.918)" fill="#f4b400"/>
      <rect id="Rectangle_26689-2" data-name="Rectangle 26689" width="74.076" height="27.287" transform="translate(-12308.057 -11073.506)" fill="#f4b400"/>
      <rect id="Rectangle_26690-2" data-name="Rectangle 26690" width="74.076" height="27.287" transform="translate(-12308.057 -11011.311)" fill="#f4b400"/>
      <rect id="Rectangle_26691-2" data-name="Rectangle 26691" width="74.076" height="27.287" transform="translate(-12308.057 -10949.113)" fill="#f4b400"/>
      <rect id="Rectangle_26692-2" data-name="Rectangle 26692" width="74.076" height="27.287" transform="translate(-12308.057 -10886.918)" fill="#f4b400"/>
    </g>
  </g>
</svg>
