<svg xmlns="http://www.w3.org/2000/svg" xmlns:xlink="http://www.w3.org/1999/xlink" width="221" height="282" viewBox="0 0 221 282">
  <defs>
    <filter id="Tracé_72800">
      <feOffset dx="-2" dy="2" input="SourceAlpha"/>
      <feGaussianBlur result="blur"/>
      <feFlood flood-opacity="0.078" result="color"/>
      <feComposite operator="out" in="SourceGraphic" in2="blur"/>
      <feComposite operator="in" in="color"/>
      <feComposite operator="in" in2="SourceGraphic"/>
    </filter>
    <filter id="Tracé_72800-2">
      <feOffset dx="-2" dy="2" input="SourceAlpha"/>
      <feGaussianBlur result="blur-2"/>
      <feFlood flood-opacity="0.078" result="color-2"/>
      <feComposite operator="out" in="SourceGraphic" in2="blur-2"/>
      <feComposite operator="in" in="color-2"/>
      <feComposite operator="in" in2="SourceGraphic"/>
    </filter>
    <filter id="Tracé_72800-3">
      <feOffset dx="-2" dy="2" input="SourceAlpha"/>
      <feGaussianBlur result="blur-3"/>
      <feFlood flood-opacity="0.078" result="color-3"/>
      <feComposite operator="out" in="SourceGraphic" in2="blur-3"/>
      <feComposite operator="in" in="color-3"/>
      <feComposite operator="in" in2="SourceGraphic"/>
    </filter>
    <filter id="Tracé_72800-4">
      <feOffset dx="-2" dy="2" input="SourceAlpha"/>
      <feGaussianBlur result="blur-4"/>
      <feFlood flood-opacity="0.078" result="color-4"/>
      <feComposite operator="out" in="SourceGraphic" in2="blur-4"/>
      <feComposite operator="in" in="color-4"/>
      <feComposite operator="in" in2="SourceGraphic"/>
    </filter>
    <clipPath id="clip-path">
      <rect id="Rectangle_34025" data-name="Rectangle 34025" width="170.788" height="117.313" fill="none"/>
    </clipPath>
    <clipPath id="clip-Ordi_timer">
      <rect width="221" height="282"/>
    </clipPath>
  </defs>
  <g id="Ordi_timer" data-name="Ordi timer" clip-path="url(#clip-Ordi_timer)">
    <g id="ordi_timers" data-name="ordi + timers" transform="translate(13638.503 14749.924)">
      <g id="timer_fils" data-name="timer + fils" transform="translate(-13623.01 -14741.688)">
        <g id="files" transform="translate(31.056 31.172)">
          <g id="Groupe_7424" data-name="Groupe 7424" transform="translate(0 64.019)">
            <path id="Tracé_72399" data-name="Tracé 72399" d="M0,0A59.149,59.149,0,0,1,24.851,41.747" fill="none" stroke="#ddd" stroke-width="1"/>
          </g>
          <g id="Groupe_7425" data-name="Groupe 7425" transform="translate(40.521 0)">
            <path id="Tracé_72400" data-name="Tracé 72400" d="M0,0S1.752,92.61,9.657,109.625" fill="none" stroke="#ddd" stroke-width="1"/>
          </g>
          <g id="Groupe_7426" data-name="Groupe 7426" transform="translate(75.858 75.947)">
            <path id="Tracé_72401" data-name="Tracé 72401" d="M-1.06,0C-4.722,23.525,2.549,33.68,2.549,33.68" transform="translate(2.091)" fill="none" stroke="#ddd" stroke-width="1"/>
          </g>
          <g id="Groupe_7427" data-name="Groupe 7427" transform="translate(106.553 19.313)">
            <path id="Tracé_72402" data-name="Tracé 72402" d="M-24.925,0s-8.734,74.524-24.247,87.675" transform="translate(49.172)" fill="none" stroke="#ddd" stroke-width="1"/>
          </g>
        </g>
        <g id="Timer_yellow" data-name="Timer yellow" transform="translate(154.927 17.286) rotate(9)">
          <path id="Tracé_72803" data-name="Tracé 72803" d="M0,0H1.688V3.095H0Z" transform="translate(11.215 1.125)" fill="#de9025"/>
          <path id="Tracé_72802" data-name="Tracé 72802" d="M0,0H6.471V2.532H0Z" transform="translate(8.823 0)" fill="#de9025"/>
          <g data-type="innerShadowGroup">
            <path id="Tracé_72801" data-name="Tracé 72801" d="M0,12.052a12.06,12.06,0,0,1,20.5-8.6l1.173-1.093,1.052,1.127L21.535,4.6A12.056,12.056,0,1,1,0,12.052Z" transform="translate(0 3.939)" fill="#de9025"/>
            <path id="Tracé_72801-2" data-name="Tracé 72801" d="M0,12.052a12.06,12.06,0,0,1,20.5-8.6l1.173-1.093,1.052,1.127L21.535,4.6A12.056,12.056,0,1,1,0,12.052Z" transform="translate(0 3.939)" fill="#fff"/>
          </g>
          <g data-type="innerShadowGroup">
            <path id="Tracé_72800-5" data-name="Tracé 72800" d="M10.34,0A10.34,10.34,0,1,1,0,10.34,10.34,10.34,0,0,1,10.34,0Z" transform="translate(1.829 5.675)" fill="#fff"/>
            <g transform="matrix(0.99, -0.16, 0.16, 0.99, -172.31, 1.45)" filter="url(#Tracé_72800)">
              <path id="Tracé_72800-6" data-name="Tracé 72800" d="M10.34,0A10.34,10.34,0,1,1,0,10.34,10.34,10.34,0,0,1,10.34,0Z" transform="translate(171.34 31.41) rotate(9)" fill="#fff"/>
            </g>
          </g>
          <path id="Tracé_72799" data-name="Tracé 72799" d="M.7,0A.7.7,0,1,1,0,.7.7.7,0,0,1,.7,0Z" transform="translate(11.355 7.29)" fill="#ddd"/>
          <path id="Tracé_72798" data-name="Tracé 72798" d="M.7,0A.7.7,0,1,1,0,.7.7.7,0,0,1,.7,0Z" transform="translate(3.095 15.421)" fill="#ddd"/>
          <path id="Tracé_72797" data-name="Tracé 72797" d="M.7,0A.7.7,0,1,1,0,.7.7.7,0,0,1,.7,0Z" transform="translate(19.615 15.421)" fill="#ddd"/>
          <path id="Tracé_72796" data-name="Tracé 72796" d="M.7,0A.7.7,0,1,1,0,.7.7.7,0,0,1,.7,0Z" transform="translate(11.355 23.823)" fill="#ddd"/>
          <path id="Tracé_72795" data-name="Tracé 72795" d="M.195.194C.543-.147.961,0,1.3.345L5.738,4.219a1.11,1.11,0,0,1-.176,1.412A1.136,1.136,0,0,1,4.133,5.8L.349,1.276C.007.929-.154.538.195.194Z" transform="translate(12.072 9.459) rotate(45)" fill="#f4b400"/>
        </g>
        <g id="Timer_red" data-name="Timer red" transform="translate(59.131)">
          <path id="Tracé_72803-2" data-name="Tracé 72803" d="M0,0H1.688V3.095H0Z" transform="translate(11.215 1.125)" fill="#b71c1c"/>
          <path id="Tracé_72802-2" data-name="Tracé 72802" d="M0,0H6.471V2.532H0Z" transform="translate(8.823)" fill="#db4437"/>
          <g data-type="innerShadowGroup">
            <path id="Tracé_72801-3" data-name="Tracé 72801" d="M0,12.052a12.06,12.06,0,0,1,20.5-8.6l1.173-1.093,1.052,1.127L21.535,4.6A12.056,12.056,0,1,1,0,12.052Z" transform="translate(0 3.939)" fill="#db4437"/>
            <path id="Tracé_72801-4" data-name="Tracé 72801" d="M0,12.052a12.06,12.06,0,0,1,20.5-8.6l1.173-1.093,1.052,1.127L21.535,4.6A12.056,12.056,0,1,1,0,12.052Z" transform="translate(0 3.939)" fill="#fff"/>
          </g>
          <g data-type="innerShadowGroup">
            <path id="Tracé_72800-7" data-name="Tracé 72800" d="M10.34,0A10.34,10.34,0,1,1,0,10.34,10.34,10.34,0,0,1,10.34,0Z" transform="translate(1.829 5.675)" fill="#fff"/>
            <g transform="matrix(1, 0, 0, 1, -74.62, -8.24)" filter="url(#Tracé_72800-2)">
              <path id="Tracé_72800-8" data-name="Tracé 72800" d="M10.34,0A10.34,10.34,0,1,1,0,10.34,10.34,10.34,0,0,1,10.34,0Z" transform="translate(76.45 13.91)" fill="#fff"/>
            </g>
          </g>
          <path id="Tracé_72799-2" data-name="Tracé 72799" d="M.7,0A.7.7,0,1,1,0,.7.7.7,0,0,1,.7,0Z" transform="translate(11.355 7.29)" fill="#ddd"/>
          <path id="Tracé_72798-2" data-name="Tracé 72798" d="M.7,0A.7.7,0,1,1,0,.7.7.7,0,0,1,.7,0Z" transform="translate(3.095 15.421)" fill="#ddd"/>
          <path id="Tracé_72797-2" data-name="Tracé 72797" d="M.7,0A.7.7,0,1,1,0,.7.7.7,0,0,1,.7,0Z" transform="translate(19.615 15.421)" fill="#ddd"/>
          <path id="Tracé_72796-2" data-name="Tracé 72796" d="M.7,0A.7.7,0,1,1,0,.7.7.7,0,0,1,.7,0Z" transform="translate(11.355 23.823)" fill="#ddd"/>
          <path id="Tracé_72795-2" data-name="Tracé 72795" d="M.195.194C.543-.147.961,0,1.3.345L5.738,4.219a1.11,1.11,0,0,1-.176,1.412A1.136,1.136,0,0,1,4.133,5.8L.349,1.276C.007.929-.154.538.195.194Z" transform="translate(12.072 9.459) rotate(45)" fill="#db4437"/>
        </g>
        <g id="Timer_green" data-name="Timer green" transform="matrix(0.966, 0.259, -0.259, 0.966, 103.715, 74.983)">
          <path id="Tracé_72803-3" data-name="Tracé 72803" d="M0,0H1.688V3.095H0Z" transform="translate(11.215 1.125)" fill="#12935a"/>
          <path id="Tracé_72802-3" data-name="Tracé 72802" d="M0,0H6.471V2.532H0Z" transform="translate(8.823 0)" fill="#0f9d58"/>
          <g data-type="innerShadowGroup">
            <path id="Tracé_72801-5" data-name="Tracé 72801" d="M0,12.052a12.06,12.06,0,0,1,20.5-8.6l1.173-1.093,1.052,1.127L21.535,4.6A12.056,12.056,0,1,1,0,12.052Z" transform="translate(0 3.939)" fill="#0f9d58"/>
            <path id="Tracé_72801-6" data-name="Tracé 72801" d="M0,12.052a12.06,12.06,0,0,1,20.5-8.6l1.173-1.093,1.052,1.127L21.535,4.6A12.056,12.056,0,1,1,0,12.052Z" transform="translate(0 3.939)" fill="#fff"/>
          </g>
          <g data-type="innerShadowGroup">
            <path id="Tracé_72800-9" data-name="Tracé 72800" d="M10.34,0A10.34,10.34,0,1,1,0,10.34,10.34,10.34,0,0,1,10.34,0Z" transform="translate(1.829 5.675)" fill="#fff"/>
            <g transform="matrix(0.97, -0.26, 0.26, 0.97, -136.68, -49.53)" filter="url(#Tracé_72800-3)">
              <path id="Tracé_72800-10" data-name="Tracé 72800" d="M10.34,0A10.34,10.34,0,1,1,0,10.34,10.34,10.34,0,0,1,10.34,0Z" transform="matrix(0.97, 0.26, -0.26, 0.97, 119.51, 89.17)" fill="#fff"/>
            </g>
          </g>
          <path id="Tracé_72799-3" data-name="Tracé 72799" d="M.7,0A.7.7,0,1,1,0,.7.7.7,0,0,1,.7,0Z" transform="translate(11.355 7.29)" fill="#ddd"/>
          <path id="Tracé_72798-3" data-name="Tracé 72798" d="M.7,0A.7.7,0,1,1,0,.7.7.7,0,0,1,.7,0Z" transform="translate(3.095 15.421)" fill="#ddd"/>
          <path id="Tracé_72797-3" data-name="Tracé 72797" d="M.7,0A.7.7,0,1,1,0,.7.7.7,0,0,1,.7,0Z" transform="translate(19.615 15.421)" fill="#ddd"/>
          <path id="Tracé_72796-3" data-name="Tracé 72796" d="M.7,0A.7.7,0,1,1,0,.7.7.7,0,0,1,.7,0Z" transform="translate(11.355 23.823)" fill="#ddd"/>
          <path id="Tracé_72795-3" data-name="Tracé 72795" d="M.195.194C.543-.147.961,0,1.3.345L5.738,4.219a1.11,1.11,0,0,1-.176,1.412A1.136,1.136,0,0,1,4.133,5.8L.349,1.276C.007.929-.154.538.195.194Z" transform="translate(12.072 9.459) rotate(45)" fill="#0f9d58"/>
        </g>
        <g id="Timer_blue" data-name="Timer blue" transform="translate(0 84.444) rotate(-48)">
          <path id="Tracé_72803-4" data-name="Tracé 72803" d="M0,0H1.688V3.095H0Z" transform="translate(11.215 1.125)" fill="#3974c6"/>
          <path id="Tracé_72802-4" data-name="Tracé 72802" d="M0,0H6.471V2.532H0Z" transform="translate(8.823 0)" fill="#4285f4"/>
          <g data-type="innerShadowGroup">
            <path id="Tracé_72801-7" data-name="Tracé 72801" d="M0,12.052a12.06,12.06,0,0,1,20.5-8.6l1.173-1.093,1.052,1.127L21.535,4.6A12.056,12.056,0,1,1,0,12.052Z" transform="translate(0 3.939)" fill="#4285f4"/>
            <path id="Tracé_72801-8" data-name="Tracé 72801" d="M0,12.052a12.06,12.06,0,0,1,20.5-8.6l1.173-1.093,1.052,1.127L21.535,4.6A12.056,12.056,0,1,1,0,12.052Z" transform="translate(0 3.939)" fill="#fff"/>
          </g>
          <g data-type="innerShadowGroup">
            <path id="Tracé_72800-11" data-name="Tracé 72800" d="M10.34,0A10.34,10.34,0,1,1,0,10.34,10.34,10.34,0,0,1,10.34,0Z" transform="translate(1.829 5.675)" fill="#fff"/>
            <g transform="matrix(0.67, 0.74, -0.74, 0.67, 58.51, -73.53)" filter="url(#Tracé_72800-4)">
              <path id="Tracé_72800-12" data-name="Tracé 72800" d="M10.34,0A10.34,10.34,0,1,1,0,10.34,10.34,10.34,0,0,1,10.34,0Z" transform="translate(20.93 95.12) rotate(-48)" fill="#fff"/>
            </g>
          </g>
          <path id="Tracé_72799-4" data-name="Tracé 72799" d="M.7,0A.7.7,0,1,1,0,.7.7.7,0,0,1,.7,0Z" transform="translate(11.355 7.29)" fill="#ddd"/>
          <path id="Tracé_72798-4" data-name="Tracé 72798" d="M.7,0A.7.7,0,1,1,0,.7.7.7,0,0,1,.7,0Z" transform="translate(3.095 15.421)" fill="#ddd"/>
          <path id="Tracé_72797-4" data-name="Tracé 72797" d="M.7,0A.7.7,0,1,1,0,.7.7.7,0,0,1,.7,0Z" transform="translate(19.615 15.421)" fill="#ddd"/>
          <path id="Tracé_72796-4" data-name="Tracé 72796" d="M.7,0A.7.7,0,1,1,0,.7.7.7,0,0,1,.7,0Z" transform="translate(11.355 23.823)" fill="#ddd"/>
          <path id="Tracé_72795-4" data-name="Tracé 72795" d="M.195.194C.543-.147.961,0,1.3.345L5.738,4.219a1.11,1.11,0,0,1-.176,1.412A1.136,1.136,0,0,1,4.133,5.8L.349,1.276C.007.929-.154.538.195.194Z" transform="translate(12.072 9.459) rotate(45)" fill="#4285f4"/>
        </g>
      </g>
      <g id="ordi_text" data-name="ordi+ text" transform="translate(-13630.342 -14604.603)">
        <g id="Ordi" transform="translate(-0.161 0)">
          <rect id="Rectangle_34024" data-name="Rectangle 34024" width="158.923" height="106.836" transform="translate(21.635 6.374)" fill="#ededed"/>
          <path id="Tracé_72443" data-name="Tracé 72443" d="M7885.733,6687.375V6579.527c0-5.366-4.783-9.466-10.151-9.466h-151.7c-5.367,0-8.94,4.1-8.94,9.466v107.848m5.707-110.939h158.922v106.836H7720.651Z" transform="translate(-7699.014 -6570.061)" fill="#606060"/>
          <path id="Tracé_72444" data-name="Tracé 72444" d="M7887.258,6737.8c9.405,0,8.445-9.938,8.445-9.938H7693.456s-.109,9.938,9.292,9.938" transform="translate(-7693.456 -6610.886)" fill="#7f7f7f"/>
          <path id="Tracé_72445" data-name="Tracé 72445" d="M7836.967,6734.9h-23.161a1.3,1.3,0,1,1,0-2.6h23.161a1.3,1.3,0,1,1,0,2.6" transform="translate(-7724.256 -6612.034)" fill="#414141"/>
          <g id="Groupe_7465" data-name="Groupe 7465" transform="translate(15.93 0)" opacity="0.2">
            <g id="Groupe_7464" data-name="Groupe 7464">
              <g id="Groupe_7463" data-name="Groupe 7463" clip-path="url(#clip-path)">
                <path id="Tracé_72446" data-name="Tracé 72446" d="M7885.733,6687.375V6579.527c0-5.366-4.783-9.466-10.151-9.466h-151.7c-5.367,0-8.94,4.1-8.94,9.466v107.848m5.707-110.939h158.922v106.836H7720.65Z" transform="translate(-7714.944 -6570.061)" fill="#25272b"/>
              </g>
            </g>
          </g>
        </g>
        <text id="Spreading_out_Speedballs..." data-name="Spreading out
Speedballs..." transform="translate(100.839 37.984)" fill="#4285f4" font-size="15" font-family="GoogleSans-Bold, Google Sans" font-weight="700"><tspan x="-50.602" y="0">Spreading out</tspan><tspan fill="#676c71"><tspan x="-45.757" y="20">Speedballs...</tspan></tspan></text>
        <g id="charge" transform="translate(44.84 69.295)">
          <path id="Tracé_72791" data-name="Tracé 72791" d="M354.476-451.135H241.88V-466.26h112.6Z" transform="translate(-241.88 466.26)" fill="#fff" stroke="#676c71" stroke-width="3.49"/>
          <path id="Tracé_72792" data-name="Tracé 72792" d="M306.883-451.952h-59.36v-7.683h59.36Z" transform="translate(-244.353 463.356)" fill="#f9ba05"/>
        </g>
      </g>
    </g>
  </g>
</svg>
