<svg xmlns="http://www.w3.org/2000/svg" xmlns:xlink="http://www.w3.org/1999/xlink" width="64" height="64" viewBox="0 0 64 64">
  <defs>
    <filter id="Ellipse_945" x="-11.5" y="-8.5" width="87" height="87" filterUnits="userSpaceOnUse">
      <feOffset dy="3" input="SourceAlpha"/>
      <feGaussianBlur stdDeviation="4.5" result="blur"/>
      <feFlood flood-opacity="0.239"/>
      <feComposite operator="in" in2="blur"/>
      <feComposite in="SourceGraphic"/>
    </filter>
    <clipPath id="clip-Picto_number_2">
      <rect width="64" height="64"/>
    </clipPath>
  </defs>
  <g id="Picto_number_2" data-name="Picto number 2" clip-path="url(#clip-Picto_number_2)">
    <g id="Groupe_15743" data-name="Groupe 15743" transform="translate(2 2.038)">
      <g transform="matrix(1, 0, 0, 1, -2, -2.04)" filter="url(#Ellipse_945)">
        <ellipse id="Ellipse_945-2" data-name="Ellipse 945" cx="30" cy="30" rx="30" ry="30" transform="translate(2 2)" fill="#fff"/>
      </g>
      <path id="Tracé_81453" data-name="Tracé 81453" d="M-6.554-3.451l3.7-3.7Q-.116-9.889.667-10.73A9.486,9.486,0,0,0,2.1-12.615a3.658,3.658,0,0,0,.392-1.711,2.238,2.238,0,0,0-.754-1.711,2.834,2.834,0,0,0-2-.7,2.792,2.792,0,0,0-1.972.7A3.847,3.847,0,0,0-3.306-14.3l-3.422-1.421a6.142,6.142,0,0,1,1.174-2.189,6.437,6.437,0,0,1,2.219-1.726A7.039,7.039,0,0,1-.2-20.3a7.384,7.384,0,0,1,3.451.768,5.714,5.714,0,0,1,2.291,2.088A5.5,5.5,0,0,1,6.351-14.5q0,3.219-3.132,6.293Q1.943-6.96-1.508-3.509l.087.174H6.612V0H-6.554Z" transform="translate(29.727 40.261)"/>
    </g>
  </g>
</svg>
