<svg xmlns="http://www.w3.org/2000/svg" xmlns:xlink="http://www.w3.org/1999/xlink" width="246" height="246" viewBox="0 0 246 246">
  <defs>
    <filter id="Union_28" x="24.611" y="52.001" width="187.412" height="23.831" filterUnits="userSpaceOnUse">
      <feOffset dx="-2" input="SourceAlpha"/>
      <feGaussianBlur stdDeviation="1" result="blur"/>
      <feFlood flood-opacity="0.161"/>
      <feComposite operator="in" in2="blur"/>
      <feComposite in="SourceGraphic"/>
    </filter>
    <filter id="Tracé_81054" x="18.563" y="64.208" width="11.844" height="10.125" filterUnits="userSpaceOnUse">
      <feOffset dx="-2" input="SourceAlpha"/>
      <feGaussianBlur stdDeviation="0.5" result="blur-2"/>
      <feFlood flood-opacity="0.271"/>
      <feComposite operator="in" in2="blur-2"/>
      <feComposite in="SourceGraphic"/>
    </filter>
    <filter id="Tracé_81050">
      <feOffset dy="3" input="SourceAlpha"/>
      <feGaussianBlur result="blur-3"/>
      <feFlood flood-color="#fff" flood-opacity="0.11" result="color"/>
      <feComposite operator="out" in="SourceGraphic" in2="blur-3"/>
      <feComposite operator="in" in="color"/>
      <feComposite operator="in" in2="SourceGraphic"/>
    </filter>
    <clipPath id="clip-Folder_vert_">
      <rect width="246" height="246"/>
    </clipPath>
  </defs>
  <g id="Folder_vert_" data-name="Folder vert " clip-path="url(#clip-Folder_vert_)">
    <g id="Groupe_15745" data-name="Groupe 15745" transform="translate(13.001 41)">
      <path id="Tracé_81049" data-name="Tracé 81049" d="M-18624.215-578.063l-5.922-150.035s-2.281-12.463,10.705-12.989,73.9-1.58,73.9-1.58,8.6.175,8.6,11.058c.172.527-.529,11.936,10.707,11.234s87.59-4.037,87.59-4.037h7.02s5.619-.176,7.723,4.915c0-.175-11.408,120.941-11.408,120.941Z" transform="translate(18630.291 742.667)" fill="#12935a"/>
      <g transform="matrix(1, 0, 0, 1, -13, -41)" filter="url(#Union_28)">
        <path id="Union_28-2" data-name="Union 28" d="M0,17.436V8.484s143.76-5,169.826-8.426c2.5-.131,1.975,0,1.975,0V9.142h9.61v2.37L0,17.831Z" transform="translate(29.61 55)" fill="#ddd"/>
      </g>
      <g transform="matrix(1, 0, 0, 1, -13, -41)" filter="url(#Tracé_81054)">
        <path id="Tracé_81054-2" data-name="Tracé 81054" d="M8.11,0H0V6.846H8.11Z" transform="matrix(1, -0.03, 0.03, 1, 22.06, 65.99)" fill="#ddd"/>
      </g>
      <g data-type="innerShadowGroup">
        <path id="Tracé_81050-2" data-name="Tracé 81050" d="M-18623.365-559.14l-5.969-125.329s.879-7.723,10.533-8.074,199.227-6.495,199.227-6.495,11.438-1.259,10.531,10.005-11.057,107.425-11.057,107.425l-1.229,4.037Z" transform="translate(18629.334 723.788)" fill="#0f9d58"/>
        <g transform="matrix(1, 0, 0, 1, -13, -41)" filter="url(#Tracé_81050)">
          <path id="Tracé_81050-3" data-name="Tracé 81050" d="M-18623.365-559.14l-5.969-125.329s.879-7.723,10.533-8.074,199.227-6.495,199.227-6.495,11.438-1.259,10.531,10.005-11.057,107.425-11.057,107.425l-1.229,4.037Z" transform="translate(18642.33 764.79)" fill="#fff"/>
        </g>
      </g>
      <path id="Tracé_81051" data-name="Tracé 81051" d="M-18617.312-455.832l203.342-19-1.1,3.555-202.014,18.508Z" transform="translate(18623.094 617.452)" fill="rgba(0,0,0,0.34)" opacity="0.28"/>
    </g>
  </g>
</svg>
